<mxfile host="app.diagrams.net" agent="Mozilla/5.0 (Macintosh; Intel Mac OS X 10.15; rv:139.0) Gecko/20100101 Firefox/139.0" version="27.1.5">
  <diagram name="Page-1" id="bkel701pkgjCiXmN4tzi">
    <mxGraphModel dx="946" dy="619" grid="1" gridSize="10" guides="1" tooltips="1" connect="1" arrows="1" fold="1" page="1" pageScale="1" pageWidth="850" pageHeight="1100" math="0" shadow="0">
      <root>
        <mxCell id="0" />
        <mxCell id="1" parent="0" />
        <mxCell id="zQuXMdvSg60-0xuLWhxD-24" style="edgeStyle=orthogonalEdgeStyle;rounded=0;orthogonalLoop=1;jettySize=auto;html=1;exitX=1;exitY=0.25;exitDx=0;exitDy=0;entryX=0;entryY=0.25;entryDx=0;entryDy=0;" edge="1" parent="1" source="zQuXMdvSg60-0xuLWhxD-1" target="zQuXMdvSg60-0xuLWhxD-5">
          <mxGeometry relative="1" as="geometry" />
        </mxCell>
        <mxCell id="zQuXMdvSg60-0xuLWhxD-25" value="Request" style="edgeLabel;html=1;align=center;verticalAlign=middle;resizable=0;points=[];" vertex="1" connectable="0" parent="zQuXMdvSg60-0xuLWhxD-24">
          <mxGeometry x="-0.2182" y="-2" relative="1" as="geometry">
            <mxPoint as="offset" />
          </mxGeometry>
        </mxCell>
        <mxCell id="zQuXMdvSg60-0xuLWhxD-1" value="Frontend/React" style="rounded=0;whiteSpace=wrap;html=1;" vertex="1" parent="1">
          <mxGeometry x="30" y="110" width="120" height="60" as="geometry" />
        </mxCell>
        <mxCell id="zQuXMdvSg60-0xuLWhxD-3" style="edgeStyle=orthogonalEdgeStyle;rounded=0;orthogonalLoop=1;jettySize=auto;html=1;entryX=0.5;entryY=0;entryDx=0;entryDy=0;" edge="1" parent="1" source="zQuXMdvSg60-0xuLWhxD-2" target="zQuXMdvSg60-0xuLWhxD-1">
          <mxGeometry relative="1" as="geometry" />
        </mxCell>
        <mxCell id="zQuXMdvSg60-0xuLWhxD-2" value="&lt;div&gt;Kullanıcı 2 input girecek:&lt;/div&gt;&lt;div&gt;1. Nerden(Şehir)&lt;/div&gt;&lt;div&gt;2. Nereye(Şehir)&lt;/div&gt;" style="text;html=1;align=center;verticalAlign=middle;resizable=0;points=[];autosize=1;strokeColor=none;fillColor=none;" vertex="1" parent="1">
          <mxGeometry x="15" y="35" width="150" height="60" as="geometry" />
        </mxCell>
        <mxCell id="zQuXMdvSg60-0xuLWhxD-11" style="edgeStyle=orthogonalEdgeStyle;rounded=0;orthogonalLoop=1;jettySize=auto;html=1;exitX=0.25;exitY=1;exitDx=0;exitDy=0;entryX=0.25;entryY=0;entryDx=0;entryDy=0;" edge="1" parent="1" source="zQuXMdvSg60-0xuLWhxD-5" target="zQuXMdvSg60-0xuLWhxD-8">
          <mxGeometry relative="1" as="geometry" />
        </mxCell>
        <mxCell id="zQuXMdvSg60-0xuLWhxD-18" value="&lt;div&gt;Request&lt;/div&gt;/API" style="edgeLabel;html=1;align=center;verticalAlign=middle;resizable=0;points=[];" vertex="1" connectable="0" parent="zQuXMdvSg60-0xuLWhxD-11">
          <mxGeometry x="-0.425" y="2" relative="1" as="geometry">
            <mxPoint as="offset" />
          </mxGeometry>
        </mxCell>
        <mxCell id="zQuXMdvSg60-0xuLWhxD-26" style="edgeStyle=orthogonalEdgeStyle;rounded=0;orthogonalLoop=1;jettySize=auto;html=1;exitX=0;exitY=0.75;exitDx=0;exitDy=0;entryX=1;entryY=0.75;entryDx=0;entryDy=0;" edge="1" parent="1" source="zQuXMdvSg60-0xuLWhxD-5" target="zQuXMdvSg60-0xuLWhxD-1">
          <mxGeometry relative="1" as="geometry" />
        </mxCell>
        <mxCell id="zQuXMdvSg60-0xuLWhxD-27" value="Response" style="edgeLabel;html=1;align=center;verticalAlign=middle;resizable=0;points=[];" vertex="1" connectable="0" parent="zQuXMdvSg60-0xuLWhxD-26">
          <mxGeometry x="0.2364" relative="1" as="geometry">
            <mxPoint as="offset" />
          </mxGeometry>
        </mxCell>
        <mxCell id="zQuXMdvSg60-0xuLWhxD-35" value="" style="edgeStyle=orthogonalEdgeStyle;rounded=0;orthogonalLoop=1;jettySize=auto;html=1;" edge="1" parent="1" source="zQuXMdvSg60-0xuLWhxD-5" target="zQuXMdvSg60-0xuLWhxD-34">
          <mxGeometry relative="1" as="geometry" />
        </mxCell>
        <mxCell id="zQuXMdvSg60-0xuLWhxD-38" style="edgeStyle=orthogonalEdgeStyle;rounded=0;orthogonalLoop=1;jettySize=auto;html=1;entryX=0;entryY=0.25;entryDx=0;entryDy=0;" edge="1" parent="1" source="zQuXMdvSg60-0xuLWhxD-5" target="zQuXMdvSg60-0xuLWhxD-37">
          <mxGeometry relative="1" as="geometry" />
        </mxCell>
        <mxCell id="zQuXMdvSg60-0xuLWhxD-5" value="Backend/Python" style="rounded=0;whiteSpace=wrap;html=1;" vertex="1" parent="1">
          <mxGeometry x="260" y="110" width="120" height="60" as="geometry" />
        </mxCell>
        <mxCell id="zQuXMdvSg60-0xuLWhxD-12" style="edgeStyle=orthogonalEdgeStyle;rounded=0;orthogonalLoop=1;jettySize=auto;html=1;exitX=0.75;exitY=0;exitDx=0;exitDy=0;entryX=0.75;entryY=1;entryDx=0;entryDy=0;" edge="1" parent="1" source="zQuXMdvSg60-0xuLWhxD-8" target="zQuXMdvSg60-0xuLWhxD-5">
          <mxGeometry relative="1" as="geometry" />
        </mxCell>
        <mxCell id="zQuXMdvSg60-0xuLWhxD-19" value="Response/API" style="edgeLabel;html=1;align=center;verticalAlign=middle;resizable=0;points=[];" vertex="1" connectable="0" parent="zQuXMdvSg60-0xuLWhxD-12">
          <mxGeometry x="0.225" relative="1" as="geometry">
            <mxPoint as="offset" />
          </mxGeometry>
        </mxCell>
        <mxCell id="zQuXMdvSg60-0xuLWhxD-8" value="AI/ChatGPT, Claude, Gemini etc.." style="rounded=0;whiteSpace=wrap;html=1;" vertex="1" parent="1">
          <mxGeometry x="260" y="250" width="120" height="60" as="geometry" />
        </mxCell>
        <mxCell id="zQuXMdvSg60-0xuLWhxD-10" value="&lt;h3&gt;Request:&amp;nbsp;&lt;/h3&gt;&lt;div&gt;Backend, komutu AI&#39;dan request edicek.&lt;/div&gt;&lt;div&gt;Mesela, &#39;&lt;b&gt;X şehrinde en önemli&lt;/b&gt;&lt;/div&gt;&lt;div&gt;&lt;b&gt;&amp;nbsp;10 gezilecek yerler listesi çıkar&lt;/b&gt;&#39;&lt;/div&gt;&lt;div&gt;&lt;h3&gt;&lt;br&gt;&lt;/h3&gt;&lt;h3&gt;Response:&amp;nbsp;&lt;/h3&gt;&lt;div&gt;1. Bilmemne Sarayı&lt;/div&gt;&lt;div&gt;2. cart curt türbesi&lt;/div&gt;&lt;div&gt;3. şöyle böyle parkı&lt;/div&gt;&lt;div&gt;4. Askerler anıtı&lt;/div&gt;&lt;div&gt;...&lt;/div&gt;&lt;/div&gt;&lt;div&gt;&lt;br&gt;&lt;/div&gt;" style="text;html=1;align=center;verticalAlign=middle;resizable=0;points=[];autosize=1;strokeColor=none;fillColor=none;" vertex="1" parent="1">
          <mxGeometry x="600" y="320" width="240" height="260" as="geometry" />
        </mxCell>
        <mxCell id="zQuXMdvSg60-0xuLWhxD-29" value="&lt;h2&gt;&lt;br&gt;&lt;/h2&gt;" style="text;html=1;align=center;verticalAlign=middle;resizable=0;points=[];autosize=1;strokeColor=none;fillColor=none;" vertex="1" parent="1">
          <mxGeometry x="120" y="370" width="20" height="60" as="geometry" />
        </mxCell>
        <mxCell id="zQuXMdvSg60-0xuLWhxD-30" value="&lt;h1 align=&quot;center&quot;&gt;API Calls from Backend:&lt;/h1&gt;&lt;div align=&quot;left&quot;&gt;&lt;h2&gt;1) Gezilecek Yerler&lt;/h2&gt;&lt;h2&gt;2) Uçak Biletleri(Skyscanner etc..)&lt;/h2&gt;&lt;h2&gt;3) Kalınacak Yerler(Booking.com, airbnb, etc..)&lt;/h2&gt;&lt;div&gt;&lt;br&gt;&lt;/div&gt;&lt;br&gt;&lt;/div&gt;" style="text;html=1;align=left;verticalAlign=middle;resizable=0;points=[];autosize=1;fillColor=#f5f5f5;fontColor=#333333;strokeColor=#666666;" vertex="1" parent="1">
          <mxGeometry x="40" y="340" width="420" height="210" as="geometry" />
        </mxCell>
        <mxCell id="zQuXMdvSg60-0xuLWhxD-33" style="edgeStyle=orthogonalEdgeStyle;rounded=0;orthogonalLoop=1;jettySize=auto;html=1;entryX=0.008;entryY=0.477;entryDx=0;entryDy=0;entryPerimeter=0;" edge="1" parent="1" source="zQuXMdvSg60-0xuLWhxD-30" target="zQuXMdvSg60-0xuLWhxD-10">
          <mxGeometry relative="1" as="geometry" />
        </mxCell>
        <mxCell id="zQuXMdvSg60-0xuLWhxD-34" value="Skyscanner" style="rounded=0;whiteSpace=wrap;html=1;" vertex="1" parent="1">
          <mxGeometry x="470" y="170" width="120" height="60" as="geometry" />
        </mxCell>
        <mxCell id="zQuXMdvSg60-0xuLWhxD-37" value="&lt;div&gt;Airbnb&lt;/div&gt;" style="rounded=0;whiteSpace=wrap;html=1;" vertex="1" parent="1">
          <mxGeometry x="470" y="60" width="120" height="60" as="geometry" />
        </mxCell>
      </root>
    </mxGraphModel>
  </diagram>
</mxfile>
